<svg viewBox="0 0 247 117" fill="none" xmlns="http://www.w3.org/2000/svg">
    <path d="M131.264 16.1095C129.534 17.9475 127.416 19.6085 126.551 20.2572L127.766 22.5588C128.42 22.0885 130.129 21.4992 132.891 20.8018C135.086 20.2342 136.74 19.7639 137.865 19.3909C138.984 19.0179 140.087 18.4827 141.189 17.7961C142.287 17.1096 143.011 16.4608 143.373 15.8608C143.736 15.2553 143.914 14.5742 143.914 13.8065C143.914 12.7091 143.541 11.8063 142.795 11.0819C142.054 10.3629 141.152 10.0007 140.103 10.0007C138.021 10.0007 135.075 12.0387 131.264 16.1095Z" fill="#FF0000"/>
    <path d="M117.245 22.6128C116.521 22.1749 115.115 21.7262 113.007 21.2667C109.828 20.5909 107.023 19.6503 104.568 18.4556C102.114 17.2608 100.892 15.8391 100.892 14.2011C100.892 13.2172 101.2 12.3036 101.822 11.471C102.444 10.6385 103.314 10.2223 104.444 10.2223C105.66 10.2223 106.968 10.6277 108.363 11.444C109.763 12.2603 111.45 13.7902 113.423 16.0337C115.499 18.3985 117.133 19.8836 118.326 20.4914L117.245 22.6128Z" fill="#FF0000"/>
    <path d="M119.982 20.8909C120.231 20.6516 120.479 20.4126 120.673 20.1481C120.997 19.7048 121.165 19.1858 121.165 18.5642C121.165 17.8181 120.813 16.1369 120.116 13.5312C118.992 9.31992 118.424 6.20607 118.424 4.18423C118.424 2.99492 118.743 2.00562 119.392 1.20553C120.04 0.410855 121.04 0 122.403 0C123.738 0 124.738 0.394637 125.392 1.18932C126.052 1.97859 126.376 2.98951 126.376 4.21667C126.376 6.2331 125.771 9.34154 124.554 13.5312C123.808 16.1423 123.441 17.7965 123.441 18.4993C123.441 19.1804 123.619 19.7318 123.971 20.1643C124.189 20.4334 124.464 20.6698 124.74 20.9064C125.156 21.264 125.573 21.6224 125.798 22.0958L126.396 23.3568C126.515 23.6075 126.594 23.8765 126.673 24.1453C126.765 24.4584 126.857 24.7713 127.012 25.0549C127.14 25.2885 127.321 25.5102 127.555 25.7217C128.068 26.1812 129.56 26.6839 132.025 27.2299C136.285 28.1922 139.361 29.2193 141.259 30.3005C143.156 31.3817 144.108 32.7603 144.108 34.4199C144.108 35.4903 143.735 36.3985 142.983 37.1337C142.232 37.8689 141.356 38.2365 140.345 38.2365C139.269 38.2365 138.069 37.8581 136.75 37.0959C135.431 36.3336 133.274 34.4307 130.29 31.3871C130.084 31.1755 129.885 30.9742 129.695 30.7832C128.962 29.8819 128.138 29.1164 127.245 28.5152C127.18 28.4656 127.119 28.421 127.063 28.3814C126.813 28.2092 126.567 28.0713 126.327 27.9684C125.137 27.3488 123.847 27.0096 122.5 27.0096C120.013 27.0096 117.722 28.1653 115.896 30.1074C115.148 30.7824 114.221 31.6558 113.115 32.7278C110.758 34.9983 109.001 36.485 107.839 37.1878C106.682 37.896 105.59 38.2473 104.563 38.2473C103.601 38.2473 102.768 37.8743 102.06 37.1283C101.352 36.3823 100.995 35.4524 100.995 34.3388C100.995 33.5063 101.227 32.7819 101.703 32.1548C102.179 31.5277 103.103 30.8844 104.466 30.1978C105.828 29.5221 107.661 28.8409 109.958 28.1652C112.25 27.4894 113.84 27.0353 114.721 26.8191C116.642 26.3301 117.798 25.7199 118.183 24.9884C118.299 24.7669 118.349 24.5194 118.399 24.2716C118.427 24.1296 118.456 23.9876 118.497 23.8503L118.982 22.2305C119.141 21.7001 119.562 21.2951 119.982 20.8909Z" fill="#242831"/>
    <path d="M5.84 104.287C4.56 103.914 3.66667 103.541 3.16 103.167C2.68 102.794 2.44 102.327 2.44 101.767C2.44 101.341 2.56 100.741 2.8 99.9673C3.04 99.194 3.38667 98.2873 3.84 97.2473C4.32 96.1806 4.88 95.0073 5.52 93.7273C6.18667 92.4473 6.93333 91.074 7.76 89.6073C7.06667 89.5806 6.44 89.5673 5.88 89.5673C5.34667 89.5406 4.90667 89.5273 4.56 89.5273C4.72 89.1273 5.17333 88.7806 5.92 88.4873C6.66667 88.194 7.65333 87.9406 8.88 87.7273C9.92 85.994 11.0267 84.3406 12.2 82.7673C13.4 81.194 14.6 79.754 15.8 78.4473C17 77.114 18.2 75.954 19.4 74.9673C20.6 73.954 21.7467 73.154 22.84 72.5673C22.8667 72.3806 22.88 72.2206 22.88 72.0873C22.9067 71.954 22.92 71.8606 22.92 71.8073C23.2933 71.8073 23.7867 71.9006 24.4 72.0873C25.04 72.274 25.6533 72.5006 26.24 72.7673C26.8533 73.034 27.3867 73.314 27.84 73.6073C28.32 73.874 28.5867 74.1006 28.64 74.2873C27.76 75.834 26.8933 78.154 26.04 81.2473C25.1867 84.314 24.48 87.994 23.92 92.2873C23.7867 93.354 23.6667 94.5673 23.56 95.9273C23.48 97.2873 23.44 98.8073 23.44 100.487C23.44 101.074 23.44 101.674 23.44 102.287C23.44 102.901 23.4667 103.541 23.52 104.207C23.4667 104.234 23.4133 104.247 23.36 104.247C23.3067 104.247 23.2 104.247 23.04 104.247C22.6667 104.247 22.2267 104.181 21.72 104.047C21.24 103.941 20.76 103.794 20.28 103.607C19.8267 103.447 19.4267 103.261 19.08 103.047C18.76 102.834 18.56 102.647 18.48 102.487C18.4533 102.141 18.44 101.794 18.44 101.447C18.44 101.127 18.44 100.781 18.44 100.407C18.44 98.754 18.4933 97.074 18.6 95.3673C18.7333 93.6606 18.9467 91.9006 19.24 90.0873C18.8667 90.0606 18.3733 90.034 17.76 90.0073C17.1467 89.954 16.4533 89.914 15.68 89.8873C14.9333 89.8606 14.12 89.834 13.24 89.8073C12.3867 89.754 11.5467 89.714 10.72 89.6873C10.08 90.8873 9.48 92.0873 8.92 93.2873C8.36 94.4606 7.88 95.6473 7.48 96.8473C7.02667 98.1273 6.65333 99.4073 6.36 100.687C6.09333 101.967 5.92 103.167 5.84 104.287ZM21.28 80.2473C21.3867 79.874 21.5067 79.3673 21.64 78.7273C21.8 78.0606 21.9467 77.3673 22.08 76.6473C21.4133 76.8873 20.6667 77.3273 19.84 77.9673C19.04 78.6073 18.2 79.4073 17.32 80.3673C16.4667 81.3006 15.5867 82.3673 14.68 83.5673C13.8 84.7406 12.9467 85.994 12.12 87.3273C14.36 87.1406 16.9067 87.0206 19.76 86.9673C19.9733 85.8473 20.2 84.7406 20.44 83.6473C20.7067 82.5273 20.9867 81.394 21.28 80.2473ZM28.5369 99.6073C28.5369 99.074 28.5902 98.3273 28.6969 97.3673C28.8302 96.4073 28.9902 95.3673 29.1769 94.2473C29.3902 93.1273 29.6169 91.9806 29.8569 90.8073C30.1235 89.634 30.3902 88.5806 30.6569 87.6473C31.0035 86.394 31.5369 85.434 32.2569 84.7673C33.0035 84.074 33.9235 83.7273 35.0169 83.7273C35.6035 83.7273 36.1769 83.8206 36.7369 84.0073C37.3235 84.194 37.6702 84.434 37.7769 84.7273C37.0035 85.3673 36.3769 86.1673 35.8969 87.1273C35.4435 88.0606 35.0702 89.074 34.7769 90.1673C34.5102 91.234 34.2969 92.3406 34.1369 93.4873C34.0035 94.6073 33.8569 95.6606 33.6969 96.6473C34.5769 95.474 35.4035 94.4206 36.1769 93.4873C36.9769 92.5273 37.6835 91.7673 38.2969 91.2073C39.1235 90.434 39.6835 89.794 39.9769 89.2873C40.2702 88.754 40.5235 88.1806 40.7369 87.5673C40.8969 87.0873 41.0835 86.5273 41.2969 85.8873C41.5369 85.2473 41.9235 84.6606 42.4569 84.1273C42.5635 84.1006 42.7902 84.0873 43.1369 84.0873C43.4035 84.0873 43.6835 84.1006 43.9769 84.1273C44.2969 84.154 44.5902 84.2073 44.8569 84.2873C45.1235 84.3673 45.3502 84.4606 45.5369 84.5673C45.7235 84.674 45.8302 84.8073 45.8569 84.9673C45.4302 85.5273 45.0302 86.4073 44.6569 87.6073C44.2835 88.7806 43.9502 90.074 43.6569 91.4873C43.3635 92.9006 43.0969 94.314 42.8569 95.7273C42.6169 97.114 42.4035 98.2873 42.2169 99.2473C42.3235 99.194 42.5635 98.9806 42.9369 98.6073C43.3102 98.234 43.7235 97.7673 44.1769 97.2073C44.6569 96.6473 45.1502 96.034 45.6569 95.3673C46.1902 94.7006 46.6569 94.0473 47.0569 93.4073C47.5635 92.634 47.9769 91.914 48.2969 91.2473C48.6435 90.554 48.9369 89.8206 49.1769 89.0473C49.4435 88.274 49.6835 87.4206 49.8969 86.4873C50.1102 85.5273 50.3369 84.394 50.5769 83.0873C50.7369 82.874 51.0835 82.7006 51.6169 82.5673C52.1769 82.4073 52.6835 82.3273 53.1369 82.3273C53.5369 82.3273 53.8302 82.394 54.0169 82.5273C53.8835 84.0206 53.6302 85.354 53.2569 86.5273C52.9102 87.7006 52.4302 88.8473 51.8169 89.9673C51.2035 91.0606 50.4435 92.1673 49.5369 93.2873C48.6302 94.3806 47.5635 95.5806 46.3369 96.8873C45.8302 97.4206 45.2702 98.0073 44.6569 98.6473C44.0702 99.2873 43.4835 99.8873 42.8969 100.447C42.3369 100.981 41.8035 101.434 41.2969 101.807C40.8169 102.181 40.4435 102.367 40.1769 102.367C39.5635 102.367 39.0569 102.127 38.6569 101.647C38.2569 101.167 38.0569 100.554 38.0569 99.8073C38.0569 99.034 38.0835 98.3673 38.1369 97.8073C38.2169 97.2206 38.3369 96.6073 38.4969 95.9673C38.6569 95.3806 38.7769 94.8873 38.8569 94.4873C38.9635 94.0873 39.0435 93.7406 39.0969 93.4473C39.1769 93.154 39.2302 92.9006 39.2569 92.6873C39.2835 92.474 39.3102 92.2606 39.3369 92.0473C39.1235 92.154 38.8435 92.3806 38.4969 92.7273C38.1502 93.0473 37.7902 93.434 37.4169 93.8873C37.0435 94.314 36.6702 94.754 36.2969 95.2073C35.9235 95.6606 35.6169 96.0473 35.3769 96.3673C34.8702 97.0606 34.4302 97.674 34.0569 98.2073C33.6835 98.7406 33.3235 99.2473 32.9769 99.7273C32.6569 100.207 32.3369 100.701 32.0169 101.207C31.6969 101.687 31.3235 102.207 30.8969 102.767C30.0435 102.501 29.4302 102.101 29.0569 101.567C28.7102 101.034 28.5369 100.381 28.5369 99.6073ZM67.8875 84.6873C67.7808 86.3406 67.4875 87.7673 67.0075 88.9673C66.5275 90.1406 65.8342 91.1806 64.9275 92.0873C64.0475 92.9673 62.9675 93.7673 61.6875 94.4873C60.4075 95.2073 58.9142 95.9006 57.2075 96.5673C57.2075 96.7273 57.1942 96.9006 57.1675 97.0873C57.1675 97.2473 57.1675 97.4206 57.1675 97.6073C57.1675 97.954 57.1942 98.314 57.2475 98.6873C57.3008 99.0606 57.3942 99.4073 57.5275 99.7273C57.6608 100.047 57.8475 100.314 58.0875 100.527C58.3275 100.714 58.6342 100.807 59.0075 100.807C59.7275 100.807 60.4342 100.647 61.1275 100.327C61.8208 100.007 62.4742 99.6206 63.0875 99.1673C63.7275 98.6873 64.3142 98.1806 64.8475 97.6473C65.4075 97.0873 65.9008 96.5806 66.3275 96.1273C66.5942 96.3673 66.8208 96.594 67.0075 96.8073C65.8075 98.4073 64.4875 99.7406 63.0475 100.807C61.6342 101.847 60.2875 102.514 59.0075 102.807C57.1675 102.594 55.7275 101.927 54.6875 100.807C53.6742 99.6606 53.1675 98.2873 53.1675 96.6873C53.1675 95.594 53.3142 94.4873 53.6075 93.3673C53.9275 92.2206 54.3542 91.1273 54.8875 90.0873C55.4475 89.0206 56.0875 88.0206 56.8075 87.0873C57.5542 86.154 58.3408 85.3406 59.1675 84.6473C60.0208 83.954 60.8875 83.4073 61.7675 83.0073C62.6742 82.6073 63.5675 82.4073 64.4475 82.4073C65.6742 82.5673 66.8208 83.3273 67.8875 84.6873ZM65.1275 86.0073C64.4075 86.114 63.6608 86.4073 62.8875 86.8873C62.1142 87.3673 61.3808 88.0073 60.6875 88.8073C60.0208 89.6073 59.4075 90.5406 58.8475 91.6073C58.2875 92.674 57.8475 93.8206 57.5275 95.0473C59.6608 93.9806 61.4342 92.674 62.8475 91.1273C64.2608 89.554 65.0208 87.8473 65.1275 86.0073ZM83.5394 85.3273C83.5127 85.834 83.4194 86.3673 83.2594 86.9273C83.126 87.4606 82.9527 87.954 82.7394 88.4073C82.526 88.834 82.2994 89.194 82.0594 89.4873C81.8194 89.7806 81.5927 89.9273 81.3794 89.9273C81.086 89.9006 80.9127 89.7006 80.8594 89.3273C80.8594 89.2473 80.886 89.1273 80.9394 88.9673C81.0194 88.7806 81.0994 88.5806 81.1794 88.3673C81.2594 88.154 81.326 87.9406 81.3794 87.7273C81.4594 87.514 81.4994 87.3273 81.4994 87.1673C81.4994 86.794 81.406 86.4873 81.2194 86.2473C81.0594 85.9806 80.8327 85.8473 80.5394 85.8473C79.4727 85.8473 78.6594 86.514 78.0994 87.8473C77.5394 89.1806 77.2594 91.1406 77.2594 93.7273C77.2594 93.994 77.2727 94.154 77.2994 94.2073C77.8594 94.1806 78.3527 94.1673 78.7794 94.1673C79.2327 94.1406 79.6727 94.1273 80.0994 94.1273C80.126 94.1806 80.1394 94.2873 80.1394 94.4473C80.1394 94.6873 80.086 94.8606 79.9794 94.9673C79.366 95.1006 78.8727 95.2206 78.4994 95.3273C78.1527 95.4073 77.886 95.4873 77.6994 95.5673C77.5127 95.6473 77.3927 95.7406 77.3394 95.8473C77.3127 95.9273 77.2994 96.0473 77.2994 96.2073C77.2994 96.4206 77.2994 96.634 77.2994 96.8473C77.326 97.0606 77.3394 97.3273 77.3394 97.6473C77.3394 99.8873 76.726 101.687 75.4994 103.047C74.2994 104.407 72.6194 105.194 70.4594 105.407C70.086 105.381 69.6994 105.274 69.2994 105.087C68.8994 104.901 68.5127 104.661 68.1394 104.367C67.7927 104.074 67.486 103.741 67.2194 103.367C66.9527 103.021 66.766 102.661 66.6594 102.287C66.6594 101.274 66.8727 100.314 67.2994 99.4073C67.726 98.474 68.2994 97.6606 69.0194 96.9673C69.766 96.2473 70.6327 95.674 71.6194 95.2473C72.6327 94.794 73.726 94.5273 74.8994 94.4473C74.8994 93.7806 74.8327 93.1273 74.6994 92.4873C74.566 91.8473 74.4194 91.234 74.2594 90.6473C74.126 90.034 73.9927 89.4473 73.8594 88.8873C73.726 88.3006 73.6594 87.7273 73.6594 87.1673C73.6594 86.4473 73.806 85.7406 74.0994 85.0473C74.3927 84.3273 74.7794 83.674 75.2594 83.0873C75.7394 82.474 76.2994 81.954 76.9394 81.5273C77.5794 81.1006 78.246 80.8073 78.9394 80.6473C79.2327 80.7273 79.6194 80.9673 80.0994 81.3673C80.606 81.7406 81.0994 82.1673 81.5794 82.6473C82.0594 83.1273 82.486 83.6206 82.8594 84.1273C83.2327 84.6073 83.4594 85.0073 83.5394 85.3273ZM70.3394 103.567C70.9794 103.301 71.5794 102.914 72.1394 102.407C72.726 101.901 73.2327 101.327 73.6594 100.687C74.086 100.047 74.4194 99.3673 74.6594 98.6473C74.926 97.9273 75.0594 97.2206 75.0594 96.5273C74.526 96.6073 73.9394 96.8606 73.2994 97.2873C72.6594 97.6873 72.0594 98.1806 71.4994 98.7673C70.9394 99.3273 70.4727 99.914 70.0994 100.527C69.726 101.141 69.5394 101.674 69.5394 102.127C69.5394 102.714 69.806 103.194 70.3394 103.567ZM88.2875 102.647C86.7675 102.487 85.5542 101.821 84.6475 100.647C83.7408 99.474 83.2875 97.9806 83.2875 96.1673C83.2875 95.1006 83.4475 93.994 83.7675 92.8473C84.0875 91.7006 84.5408 90.594 85.1275 89.5273C85.7142 88.434 86.4075 87.4073 87.2075 86.4473C88.0075 85.4873 88.8742 84.6606 89.8075 83.9673C91.2742 82.874 92.6475 82.3273 93.9275 82.3273C94.7808 82.7806 95.6208 83.7273 96.4475 85.1673C96.5808 85.1673 96.7008 85.1673 96.8075 85.1673C96.9142 85.1406 97.0342 85.1273 97.1675 85.1273C98.5808 85.1273 99.2875 86.3806 99.2875 88.8873C99.2875 90.5673 99.0075 92.1673 98.4475 93.6873C97.9142 95.1806 97.1542 96.5406 96.1675 97.7673C95.2075 98.994 94.0475 100.034 92.6875 100.887C91.3542 101.714 89.8875 102.301 88.2875 102.647ZM90.3275 90.0473C89.8742 90.6606 89.4475 91.3273 89.0475 92.0473C88.6475 92.7673 88.3008 93.5006 88.0075 94.2473C87.7142 94.9673 87.4875 95.674 87.3275 96.3673C87.1675 97.034 87.0875 97.634 87.0875 98.1673C87.0875 98.8073 87.1942 99.4206 87.4075 100.007C87.6208 100.594 87.8608 100.927 88.1275 101.007C89.3275 100.741 90.4208 100.247 91.4075 99.5273C92.4208 98.7806 93.2875 97.8606 94.0075 96.7673C94.7542 95.674 95.3275 94.434 95.7275 93.0473C96.1542 91.6606 96.3675 90.1806 96.3675 88.6073C96.3675 87.914 96.3275 87.3673 96.2475 86.9673C96.1675 86.5673 96.0342 86.2206 95.8475 85.9273C94.6742 86.274 93.6208 86.834 92.6875 87.6073C91.7808 88.3806 90.9942 89.194 90.3275 90.0473ZM124.344 88.9673C123.917 88.994 123.397 89.274 122.784 89.8073C122.17 90.314 121.504 90.9806 120.784 91.8073C120.09 92.6073 119.357 93.5006 118.584 94.4873C117.837 95.474 117.104 96.4606 116.384 97.4473C115.69 98.4073 115.037 99.314 114.424 100.167C113.81 101.021 113.29 101.701 112.864 102.207C112.277 101.967 111.77 101.621 111.344 101.167C110.917 100.687 110.61 100.101 110.424 99.4073C110.557 98.5806 110.744 97.7273 110.984 96.8473C111.224 95.9406 111.53 95.0073 111.904 94.0473C112.304 93.0873 112.784 92.0873 113.344 91.0473C113.93 89.9806 114.637 88.8606 115.464 87.6873C115.064 87.714 114.517 88.0073 113.824 88.5673C113.13 89.1006 112.384 89.8073 111.584 90.6873C110.784 91.5406 109.957 92.514 109.104 93.6073C108.25 94.674 107.45 95.7273 106.704 96.7673C105.717 98.154 104.89 99.3673 104.224 100.407C103.584 101.447 103.117 102.061 102.824 102.247C102.13 101.741 101.65 101.194 101.384 100.607C101.117 100.021 100.917 99.3673 100.784 98.6473C100.81 98.0073 100.904 97.2073 101.064 96.2473C101.25 95.2873 101.504 94.3006 101.824 93.2873C102.437 91.3406 103.224 89.4073 104.184 87.4873C105.17 85.5673 106.117 83.8073 107.024 82.2073C107.77 82.3673 108.437 82.6206 109.024 82.9673C109.637 83.314 110.277 83.8206 110.944 84.4873C110.677 85.314 110.264 86.194 109.704 87.1273C109.144 88.034 108.557 88.994 107.944 90.0073C107.33 91.0206 106.77 92.0606 106.264 93.1273C105.757 94.194 105.424 95.274 105.264 96.3673C106.01 95.3006 106.89 94.074 107.904 92.6873C108.944 91.3006 109.997 89.994 111.064 88.7673C112.157 87.5406 113.237 86.5006 114.304 85.6473C115.37 84.794 116.33 84.3673 117.184 84.3673C117.504 84.3673 117.85 84.4206 118.224 84.5273C118.597 84.634 118.944 84.7673 119.264 84.9273C119.584 85.0873 119.85 85.2473 120.064 85.4073C120.277 85.5406 120.397 85.6473 120.424 85.7273C120.29 86.2606 119.97 86.994 119.464 87.9273C118.984 88.834 118.464 89.794 117.904 90.8073C117.344 91.8206 116.824 92.8073 116.344 93.7673C115.864 94.7006 115.584 95.4473 115.504 96.0073C116.81 94.2206 118.037 92.6073 119.184 91.1673C120.33 89.7006 121.41 88.4473 122.424 87.4073C123.437 86.3673 124.37 85.5673 125.224 85.0073C126.104 84.4473 126.93 84.1673 127.704 84.1673C128.237 84.1673 128.73 84.314 129.184 84.6073C129.664 84.874 129.997 85.274 130.184 85.8073C129.944 86.6073 129.544 87.5673 128.984 88.6873C128.45 89.8073 127.904 90.994 127.344 92.2473C126.784 93.474 126.277 94.6873 125.824 95.8873C125.397 97.0873 125.184 98.1673 125.184 99.1273C125.184 99.6873 125.264 100.061 125.424 100.247C125.584 100.407 125.81 100.487 126.104 100.487C126.424 100.487 126.717 100.434 126.984 100.327C127.277 100.194 127.49 100.127 127.624 100.127C127.784 100.234 127.877 100.367 127.904 100.527C127.93 100.687 127.944 100.834 127.944 100.967C127.41 101.394 126.864 101.741 126.304 102.007C125.744 102.301 125.117 102.447 124.424 102.447C123.784 102.447 123.25 102.341 122.824 102.127C122.424 101.914 122.09 101.621 121.824 101.247C121.557 100.874 121.37 100.447 121.264 99.9673C121.157 99.4873 121.104 98.9673 121.104 98.4073C121.104 97.5006 121.224 96.6073 121.464 95.7273C121.704 94.8206 121.984 93.9673 122.304 93.1673C122.65 92.3406 123.01 91.5806 123.384 90.8873C123.757 90.1673 124.077 89.5273 124.344 88.9673ZM146.13 84.6873C146.023 86.3406 145.73 87.7673 145.25 88.9673C144.77 90.1406 144.076 91.1806 143.17 92.0873C142.29 92.9673 141.21 93.7673 139.93 94.4873C138.65 95.2073 137.156 95.9006 135.45 96.5673C135.45 96.7273 135.436 96.9006 135.41 97.0873C135.41 97.2473 135.41 97.4206 135.41 97.6073C135.41 97.954 135.436 98.314 135.49 98.6873C135.543 99.0606 135.636 99.4073 135.77 99.7273C135.903 100.047 136.09 100.314 136.33 100.527C136.57 100.714 136.876 100.807 137.25 100.807C137.97 100.807 138.676 100.647 139.37 100.327C140.063 100.007 140.716 99.6206 141.33 99.1673C141.97 98.6873 142.556 98.1806 143.09 97.6473C143.65 97.0873 144.143 96.5806 144.57 96.1273C144.836 96.3673 145.063 96.594 145.25 96.8073C144.05 98.4073 142.73 99.7406 141.29 100.807C139.876 101.847 138.53 102.514 137.25 102.807C135.41 102.594 133.97 101.927 132.93 100.807C131.916 99.6606 131.41 98.2873 131.41 96.6873C131.41 95.594 131.556 94.4873 131.85 93.3673C132.17 92.2206 132.596 91.1273 133.13 90.0873C133.69 89.0206 134.33 88.0206 135.05 87.0873C135.796 86.154 136.583 85.3406 137.41 84.6473C138.263 83.954 139.13 83.4073 140.01 83.0073C140.916 82.6073 141.81 82.4073 142.69 82.4073C143.916 82.5673 145.063 83.3273 146.13 84.6873ZM143.37 86.0073C142.65 86.114 141.903 86.4073 141.13 86.8873C140.356 87.3673 139.623 88.0073 138.93 88.8073C138.263 89.6073 137.65 90.5406 137.09 91.6073C136.53 92.674 136.09 93.8206 135.77 95.0473C137.903 93.9806 139.676 92.674 141.09 91.1273C142.503 89.554 143.263 87.8473 143.37 86.0073ZM183.753 74.2873C183.833 74.7406 183.886 75.0606 183.913 75.2473C183.966 75.4073 183.993 75.634 183.993 75.9273C183.993 76.8073 183.793 77.634 183.393 78.4073C183.019 79.154 182.499 79.6873 181.833 80.0073C181.299 79.2873 180.646 78.674 179.873 78.1673C179.099 77.634 178.246 77.2073 177.313 76.8873C176.406 76.5406 175.459 76.2873 174.473 76.1273C173.486 75.9673 172.526 75.8873 171.593 75.8873C170.659 75.8873 169.779 75.9673 168.953 76.1273C168.153 76.2606 167.433 76.4606 166.793 76.7273C166.179 76.9673 165.686 77.274 165.313 77.6473C164.966 78.0206 164.793 78.4473 164.793 78.9273C164.873 79.514 165.233 80.114 165.873 80.7273C166.513 81.314 167.299 81.9006 168.233 82.4873C169.166 83.0473 170.193 83.6073 171.313 84.1673C172.459 84.7273 173.579 85.2606 174.673 85.7673C176.033 86.4073 177.206 87.0073 178.193 87.5673C179.179 88.1006 179.993 88.7006 180.633 89.3673C181.273 90.0073 181.753 90.7406 182.073 91.5673C182.393 92.394 182.553 93.394 182.553 94.5673C182.553 95.9273 182.326 97.2073 181.873 98.4073C181.419 99.5806 180.753 100.607 179.873 101.487C179.019 102.367 177.979 103.047 176.753 103.527C175.526 104.034 174.153 104.287 172.633 104.287C171.139 104.287 169.526 104.061 167.793 103.607C166.059 103.154 164.433 102.527 162.913 101.727C161.419 100.954 160.166 100.061 159.153 99.0473C158.166 98.0073 157.673 96.914 157.673 95.7673C157.673 95.234 157.819 94.554 158.113 93.7273C158.433 92.9006 158.993 92.034 159.793 91.1273C159.873 91.9273 160.299 92.874 161.073 93.9673C161.873 95.0606 163.059 96.074 164.633 97.0073C166.099 97.8606 167.606 98.4873 169.153 98.8873C170.726 99.2606 172.193 99.4473 173.553 99.4473C175.046 99.4473 176.259 99.2606 177.193 98.8873C178.126 98.514 178.859 98.074 179.393 97.5673C179.926 97.034 180.299 96.5006 180.513 95.9673C180.726 95.434 180.846 95.0073 180.873 94.6873C180.846 94.154 180.593 93.6473 180.113 93.1673C179.659 92.6606 179.033 92.1806 178.233 91.7273C177.459 91.2473 176.553 90.7673 175.513 90.2873C174.473 89.8073 173.393 89.3273 172.273 88.8473C170.593 88.1006 169.139 87.4073 167.913 86.7673C166.713 86.1006 165.713 85.434 164.913 84.7673C164.139 84.074 163.566 83.354 163.193 82.6073C162.846 81.8606 162.673 81.0073 162.673 80.0473C162.673 78.554 163.126 77.1406 164.033 75.8073C164.939 74.474 166.246 73.4606 167.953 72.7673C168.806 72.394 169.713 72.1273 170.673 71.9673C171.659 71.8073 172.619 71.7273 173.553 71.7273C175.313 71.7273 177.033 71.9673 178.713 72.4473C180.393 72.9273 182.073 73.5406 183.753 74.2873ZM186.943 85.9273C186.81 85.7673 186.69 85.434 186.583 84.9273C186.476 84.394 186.423 83.9406 186.423 83.5673C187.116 83.6206 187.783 83.674 188.423 83.7273C189.063 83.754 189.65 83.7806 190.183 83.8073C190.583 83.0073 191.01 82.2206 191.463 81.4473C191.943 80.6473 192.396 79.9273 192.823 79.2873C193.276 78.6206 193.69 78.0606 194.063 77.6073C194.463 77.154 194.77 76.8606 194.983 76.7273C195.25 76.7273 195.583 76.7806 195.983 76.8873C196.41 76.9673 196.836 77.0873 197.263 77.2473C197.69 77.3806 198.076 77.5273 198.423 77.6873C198.77 77.8473 199.01 78.0073 199.143 78.1673C198.343 79.1806 197.65 80.1273 197.063 81.0073C196.503 81.8606 195.89 82.8473 195.223 83.9673C195.756 83.9673 196.29 83.954 196.823 83.9273C197.383 83.9006 197.943 83.8606 198.503 83.8073C198.636 83.9406 198.743 84.114 198.823 84.3273C198.903 84.514 198.943 84.714 198.943 84.9273C197.636 85.4073 196.05 85.674 194.183 85.7273C193.516 87.0073 192.916 88.2873 192.383 89.5673C191.876 90.8206 191.436 92.034 191.063 93.2073C190.716 94.3806 190.436 95.4873 190.223 96.5273C190.036 97.5673 189.943 98.5006 189.943 99.3273C189.943 100.501 190.383 101.154 191.263 101.287C192.063 101.181 192.823 100.981 193.543 100.687C194.263 100.394 194.903 100.021 195.463 99.5673C195.623 99.8073 195.716 100.007 195.743 100.167C195.583 100.407 195.303 100.687 194.903 101.007C194.53 101.327 194.116 101.634 193.663 101.927C193.21 102.247 192.77 102.514 192.343 102.727C191.916 102.941 191.596 103.061 191.383 103.087C190.716 103.061 190.05 102.914 189.383 102.647C188.716 102.381 188.103 102.047 187.543 101.647C187.01 101.247 186.57 100.807 186.223 100.327C185.876 99.8206 185.703 99.3273 185.703 98.8473C185.703 98.2073 185.783 97.4073 185.943 96.4473C186.13 95.4606 186.383 94.394 186.703 93.2473C187.023 92.1006 187.396 90.9006 187.823 89.6473C188.25 88.394 188.716 87.154 189.223 85.9273H186.943ZM203.366 102.647C201.846 102.487 200.632 101.821 199.726 100.647C198.819 99.474 198.366 97.9806 198.366 96.1673C198.366 95.1006 198.526 93.994 198.846 92.8473C199.166 91.7006 199.619 90.594 200.206 89.5273C200.792 88.434 201.486 87.4073 202.286 86.4473C203.086 85.4873 203.952 84.6606 204.886 83.9673C206.352 82.874 207.726 82.3273 209.006 82.3273C209.859 82.7806 210.699 83.7273 211.526 85.1673C211.659 85.1673 211.779 85.1673 211.886 85.1673C211.992 85.1406 212.112 85.1273 212.246 85.1273C213.659 85.1273 214.366 86.3806 214.366 88.8873C214.366 90.5673 214.086 92.1673 213.526 93.6873C212.992 95.1806 212.232 96.5406 211.246 97.7673C210.286 98.994 209.126 100.034 207.766 100.887C206.432 101.714 204.966 102.301 203.366 102.647ZM205.406 90.0473C204.952 90.6606 204.526 91.3273 204.126 92.0473C203.726 92.7673 203.379 93.5006 203.086 94.2473C202.792 94.9673 202.566 95.674 202.406 96.3673C202.246 97.034 202.166 97.634 202.166 98.1673C202.166 98.8073 202.272 99.4206 202.486 100.007C202.699 100.594 202.939 100.927 203.206 101.007C204.406 100.741 205.499 100.247 206.486 99.5273C207.499 98.7806 208.366 97.8606 209.086 96.7673C209.832 95.674 210.406 94.434 210.806 93.0473C211.232 91.6606 211.446 90.1806 211.446 88.6073C211.446 87.914 211.406 87.3673 211.326 86.9673C211.246 86.5673 211.112 86.2206 210.926 85.9273C209.752 86.274 208.699 86.834 207.766 87.6073C206.859 88.3806 206.072 89.194 205.406 90.0473ZM215.342 100.447C215.475 99.674 215.702 98.6606 216.022 97.4073C216.369 96.1273 216.769 94.7806 217.222 93.3673C217.675 91.9273 218.155 90.4873 218.662 89.0473C219.169 87.6073 219.662 86.314 220.142 85.1673C220.489 84.3406 220.795 83.7006 221.062 83.2473C221.329 82.7673 221.622 82.3673 221.942 82.0473C222.315 82.1006 222.702 82.194 223.102 82.3273C223.502 82.4606 223.889 82.6206 224.262 82.8073C224.635 82.994 224.969 83.194 225.262 83.4073C225.555 83.594 225.782 83.7806 225.942 83.9673C225.222 84.8206 224.582 85.794 224.022 86.8873C223.489 87.9806 222.942 89.3806 222.382 91.0873C223.822 89.8073 225.089 88.5806 226.182 87.4073C227.302 86.234 228.342 84.9273 229.302 83.4873C229.462 83.354 229.742 83.2873 230.142 83.2873C230.515 83.2873 230.875 83.354 231.222 83.4873C231.569 83.594 231.809 83.754 231.942 83.9673C231.462 85.2473 231.222 86.514 231.222 87.7673C231.222 88.9406 231.395 89.8206 231.742 90.4073C231.715 90.5673 231.529 90.874 231.182 91.3273C230.862 91.7806 230.502 92.2073 230.102 92.6073C229.382 92.234 228.742 91.7273 228.182 91.0873C227.622 90.4206 227.209 89.7006 226.942 88.9273C225.689 89.8073 224.622 90.674 223.742 91.5273C222.862 92.354 222.102 93.2873 221.462 94.3273C220.849 95.3406 220.315 96.514 219.862 97.8473C219.435 99.1806 219.022 100.767 218.622 102.607C218.382 102.581 218.089 102.487 217.742 102.327C217.422 102.194 217.089 102.021 216.742 101.807C216.422 101.594 216.129 101.367 215.862 101.127C215.595 100.887 215.422 100.661 215.342 100.447ZM246.755 84.6873C246.648 86.3406 246.355 87.7673 245.875 88.9673C245.395 90.1406 244.701 91.1806 243.795 92.0873C242.915 92.9673 241.835 93.7673 240.555 94.4873C239.275 95.2073 237.781 95.9006 236.075 96.5673C236.075 96.7273 236.061 96.9006 236.035 97.0873C236.035 97.2473 236.035 97.4206 236.035 97.6073C236.035 97.954 236.061 98.314 236.115 98.6873C236.168 99.0606 236.261 99.4073 236.395 99.7273C236.528 100.047 236.715 100.314 236.955 100.527C237.195 100.714 237.501 100.807 237.875 100.807C238.595 100.807 239.301 100.647 239.995 100.327C240.688 100.007 241.341 99.6206 241.955 99.1673C242.595 98.6873 243.181 98.1806 243.715 97.6473C244.275 97.0873 244.768 96.5806 245.195 96.1273C245.461 96.3673 245.688 96.594 245.875 96.8073C244.675 98.4073 243.355 99.7406 241.915 100.807C240.501 101.847 239.155 102.514 237.875 102.807C236.035 102.594 234.595 101.927 233.555 100.807C232.541 99.6606 232.035 98.2873 232.035 96.6873C232.035 95.594 232.181 94.4873 232.475 93.3673C232.795 92.2206 233.221 91.1273 233.755 90.0873C234.315 89.0206 234.955 88.0206 235.675 87.0873C236.421 86.154 237.208 85.3406 238.035 84.6473C238.888 83.954 239.755 83.4073 240.635 83.0073C241.541 82.6073 242.435 82.4073 243.315 82.4073C244.541 82.5673 245.688 83.3273 246.755 84.6873ZM243.995 86.0073C243.275 86.114 242.528 86.4073 241.755 86.8873C240.981 87.3673 240.248 88.0073 239.555 88.8073C238.888 89.6073 238.275 90.5406 237.715 91.6073C237.155 92.674 236.715 93.8206 236.395 95.0473C238.528 93.9806 240.301 92.674 241.715 91.1273C243.128 89.554 243.888 87.8473 243.995 86.0073Z" fill="black"/>
</svg>
